<svg xmlns="http://www.w3.org/2000/svg" viewBox="0 0 360 186">
  <g fill="none" fill-rule="evenodd" stroke="#151515">
    <g transform="translate(137 39)">
      <circle cx="42.5" cy="95.5" r="42.5"/>
      <path stroke-linecap="square" d="M42.5 42.5V.5"/>
      <rect width="8" height="9" x="38.5" y="43.5" rx="2"/>
      <circle cx="32.5" cy="67.5" r="1" />
      <circle cx="51.5" cy="103.5" r="1" />
      <circle cx="25.5" cy="106.5" r="1" />
      <circle cx="61.5" cy="90.5" r="1" />
      <circle cx="66.5" cy="114.5" r="1" />
      <circle cx="44.5" cy="125.5" r="1" />
      <circle cx="54.5" cy="71.5" r="1" />
      <circle cx="36.5" cy="87.5" r="1" />
      <circle cx="73.5" cy="104.5" r="1" />
      <circle cx="20.5" cy="122.5" r="1" />
      <circle cx="42.5" cy="112.5" r="1" />
      <circle cx="14.5" cy="96.5" r="1" />
      <circle cx="70.5" cy="80.5" r="1" />
      <circle cx="11.5" cy="80.5" r="1" />
      <circle cx="65.5" cy="66.5" r="1" />
      <circle cx="48.5" cy="84.5" r="1" />
      <circle cx="26.5" cy="79.5" r="1" />
      <circle cx="50.5" cy="59.5" r="1" />
      <circle cx="41.5" cy="74.5" r="1" />
      <circle cx="40.5" cy="99.5" r="1" />
      <circle cx="61.5" cy="124.5" r="1" />
      <circle cx="33.5" cy="129.5" r="1" />
      <circle cx="25.5" cy="93.5" r="1" />
      <circle cx="76.5" cy="94.5" r="1" />
      <circle cx="13.5" cy="110.5" r="1" />
      <circle cx="31.5" cy="117.5" r="1" />
      <circle cx="37.5" cy="58.5" r="1" />
      <circle cx="19.5" cy="69.5" r="1" />
      <circle cx="53.5" cy="116.5" r="1" />
      <circle cx="63.5" cy="103.5" r="1" />
      <circle cx="59.5" cy="79.5" r="1" />
      <circle cx="51.5" cy="93.5" r="1" />
      <circle cx="18.5" cy="88.5" r="1" />
      <circle cx="6.5" cy="102.5" r="1" />
      <circle cx="7.5" cy="92.5" r="1" />
      <circle cx="78.5" cy="86.5" r="1" />
      <circle cx="43.5" cy="65.5" r="1" />
      <circle cx="34.5" cy="107.5" r="1" />
      <circle cx="26.5" cy="61.5" r="1" />
      <circle cx="74.5" cy="116.5" r="1" />
      <circle cx="52.5" cy="131.5" r="1" />
      <circle cx="72.5" cy="72.5" r="1" />
      <circle cx="22.5" cy="113.5" r="1" />
      <circle cx="5.5" cy="85.5" r="1" />
      <circle cx="38.5" cy="80.5" r="1" />
      <circle cx="9.5" cy="73.5" r="1" />
      <circle cx="32.5" cy="99.5" r="1" />
      <circle cx="17.5" cy="103.5" r="1" />
      <circle cx="18.5" cy="77.5" r="1" />
      <circle cx="58.5" cy="109.5" r="1" />
      <circle cx="42.5" cy="132.5" r="1" />
      <circle cx="41.5" cy="119.5" r="1" />
      <circle cx="68.5" cy="122.5" r="1" />
      <circle cx="68.5" cy="97.5" r="1" />
      <circle cx="77.5" cy="110.5" r="1" />
      <circle cx="42.5" cy="91.5" r="1" />
      <circle cx="49.5" cy="76.5" r="1" />
      <circle cx="27.5" cy="86.5" r="1" />
      <circle cx="29.5" cy="72.5" r="1" />
      <circle cx="69.5" cy="88.5" r="1" />
      <circle cx="57.5" cy="63.5" r="1" />
      <circle cx="26.5" cy="127.5" r="1" />
      <circle cx="11.5" cy="119.5" r="1" />
    </g>
    <g transform="translate(4 12)">
      <circle cx="42.5" cy="95.5" r="42.5"/>
      <path stroke-linecap="square" d="M42.5 42.5V.5"/>
      <rect width="8" height="9" x="38.5" y="43.5" rx="2"/>
      <path stroke-linecap="square" d="M42.5 137.5v-64M46.5 74.5l-4 5M42.5 79.5l-4-5M50 79l-7.5 7.5M42.5 86.5L35 79M53 83L42.5 93.5M42.5 93.5l-10-10M57 86l-14.5 14.5M42.5 100.5L28.9 86.9M61 90l-18.5 18.5M42.5 108.5L25 91M64.5 93.5l-22 22M42.5 115.5L21.9 94.9M64.5 101.5l-22 22M42.5 123.5l-20.6-20.6M60.5 112.5l-18 18M42.5 130.5L25 113M59.5 120.5l-17 17M42.5 137.5l-16-17"/>
    </g>
    <g transform="translate(270 12)">
      <circle cx="42.5" cy="95.5" r="42.5"/>
      <path stroke-linecap="square" d="M42.5 42.5V.5"/>
      <rect width="8" height="9" x="38.5" y="43.5" rx="2"/>
      <path stroke-linecap="square" d="M3.5 78.5c3.8-5.6 7.6-8.4 11.4-8.4 6.4 0 4.4 8.4 14 8.4 6.4 0 6.2-9.2 13.6-9.2 7 0 7.3 9.2 14.8 9.2 5.5 0 6.2-9.2 12-9.2 3.6 0 7.7 3 12.2 9.2M3.8 113c3.3 5.6 6.8 8.4 10.6 8.4 6.4 0 4.4-8.4 14-8.4 6.4 0 6.2 9.2 13.6 9.2 7 0 7.3-9.2 14.8-9.2 5.5 0 6.2 9.2 12 9.2 3.6 0 7.7-3 12.2-9.2"/>
    </g>
  </g>
</svg>
