<?xml version="1.0" encoding="UTF-8"?>
<svg width="360px" height="152px" viewBox="0 0 360 152" version="1.1" xmlns="http://www.w3.org/2000/svg" xmlns:xlink="http://www.w3.org/1999/xlink">
    <!-- Generator: Sketch 48.2 (47327) - http://www.bohemiancoding.com/sketch -->
    <title>Artboard</title>
    <desc>Created with Sketch.</desc>
    <defs></defs>
    <g id="Page-1" stroke="none" stroke-width="1" fill="none" fill-rule="evenodd">
        <g id="Artboard" stroke="#979797">
            <g id="Group" transform="translate(137.000000, 35.000000)">
                <circle id="Oval" cx="42.5" cy="65.5" r="42.5"></circle>
                <path d="M42.5,12.8488372 L42.5,0.136774486" id="Line" stroke-linecap="square"></path>
                <rect id="Rectangle" x="38.5" y="13.5" width="8" height="9" rx="2"></rect>
                <circle id="Oval-2" fill="#D8D8D8" cx="32.5" cy="37.5" r="1"></circle>
                <circle id="Oval-2" fill="#D8D8D8" cx="51.5" cy="73.5" r="1"></circle>
                <circle id="Oval-2" fill="#D8D8D8" cx="25.5" cy="76.5" r="1"></circle>
                <circle id="Oval-2" fill="#D8D8D8" cx="61.5" cy="60.5" r="1"></circle>
                <circle id="Oval-2" fill="#D8D8D8" cx="66.5" cy="84.5" r="1"></circle>
                <circle id="Oval-2" fill="#D8D8D8" cx="44.5" cy="95.5" r="1"></circle>
                <circle id="Oval-2" fill="#D8D8D8" cx="54.5" cy="41.5" r="1"></circle>
                <circle id="Oval-2" fill="#D8D8D8" cx="36.5" cy="57.5" r="1"></circle>
                <circle id="Oval-2" fill="#D8D8D8" cx="73.5" cy="74.5" r="1"></circle>
                <circle id="Oval-2" fill="#D8D8D8" cx="20.5" cy="92.5" r="1"></circle>
                <circle id="Oval-2" fill="#D8D8D8" cx="42.5" cy="82.5" r="1"></circle>
                <circle id="Oval-2" fill="#D8D8D8" cx="14.5" cy="66.5" r="1"></circle>
                <circle id="Oval-2" fill="#D8D8D8" cx="70.5" cy="50.5" r="1"></circle>
                <circle id="Oval-2" fill="#D8D8D8" cx="11.5" cy="50.5" r="1"></circle>
                <circle id="Oval-2" fill="#D8D8D8" cx="65.5" cy="36.5" r="1"></circle>
                <circle id="Oval-2" fill="#D8D8D8" cx="48.5" cy="54.5" r="1"></circle>
                <circle id="Oval-2" fill="#D8D8D8" cx="26.5" cy="49.5" r="1"></circle>
                <circle id="Oval-2" fill="#D8D8D8" cx="50.5" cy="29.5" r="1"></circle>
                <circle id="Oval-2" fill="#D8D8D8" cx="41.5" cy="44.5" r="1"></circle>
                <circle id="Oval-2" fill="#D8D8D8" cx="40.5" cy="69.5" r="1"></circle>
                <circle id="Oval-2" fill="#D8D8D8" cx="61.5" cy="94.5" r="1"></circle>
                <circle id="Oval-2" fill="#D8D8D8" cx="33.5" cy="99.5" r="1"></circle>
                <circle id="Oval-2" fill="#D8D8D8" cx="25.5" cy="63.5" r="1"></circle>
                <circle id="Oval-2" fill="#D8D8D8" cx="76.5" cy="64.5" r="1"></circle>
                <circle id="Oval-2" fill="#D8D8D8" cx="13.5" cy="80.5" r="1"></circle>
                <circle id="Oval-2" fill="#D8D8D8" cx="31.5" cy="87.5" r="1"></circle>
                <circle id="Oval-2" fill="#D8D8D8" cx="37.5" cy="28.5" r="1"></circle>
                <circle id="Oval-2" fill="#D8D8D8" cx="19.5" cy="39.5" r="1"></circle>
                <circle id="Oval-2" fill="#D8D8D8" cx="53.5" cy="86.5" r="1"></circle>
                <circle id="Oval-2" fill="#D8D8D8" cx="63.5" cy="73.5" r="1"></circle>
                <circle id="Oval-2" fill="#D8D8D8" cx="59.5" cy="49.5" r="1"></circle>
                <circle id="Oval-2" fill="#D8D8D8" cx="51.5" cy="63.5" r="1"></circle>
                <circle id="Oval-2" fill="#D8D8D8" cx="18.5" cy="58.5" r="1"></circle>
                <circle id="Oval-2" fill="#D8D8D8" cx="6.5" cy="72.5" r="1"></circle>
                <circle id="Oval-2" fill="#D8D8D8" cx="7.5" cy="62.5" r="1"></circle>
                <circle id="Oval-2" fill="#D8D8D8" cx="78.5" cy="56.5" r="1"></circle>
                <circle id="Oval-2" fill="#D8D8D8" cx="43.5" cy="35.5" r="1"></circle>
                <circle id="Oval-2" fill="#D8D8D8" cx="34.5" cy="77.5" r="1"></circle>
                <circle id="Oval-2" fill="#D8D8D8" cx="26.5" cy="31.5" r="1"></circle>
                <circle id="Oval-2" fill="#D8D8D8" cx="74.5" cy="86.5" r="1"></circle>
                <circle id="Oval-2" fill="#D8D8D8" cx="52.5" cy="101.5" r="1"></circle>
                <circle id="Oval-2" fill="#D8D8D8" cx="72.5" cy="42.5" r="1"></circle>
                <circle id="Oval-2" fill="#D8D8D8" cx="22.5" cy="83.5" r="1"></circle>
                <circle id="Oval-2" fill="#D8D8D8" cx="5.5" cy="55.5" r="1"></circle>
                <circle id="Oval-2" fill="#D8D8D8" cx="38.5" cy="50.5" r="1"></circle>
                <circle id="Oval-2" fill="#D8D8D8" cx="9.5" cy="43.5" r="1"></circle>
                <circle id="Oval-2" fill="#D8D8D8" cx="32.5" cy="69.5" r="1"></circle>
                <circle id="Oval-2" fill="#D8D8D8" cx="17.5" cy="73.5" r="1"></circle>
                <circle id="Oval-2" fill="#D8D8D8" cx="18.5" cy="47.5" r="1"></circle>
                <circle id="Oval-2" fill="#D8D8D8" cx="58.5" cy="79.5" r="1"></circle>
                <circle id="Oval-2" fill="#D8D8D8" cx="42.5" cy="102.5" r="1"></circle>
                <circle id="Oval-2" fill="#D8D8D8" cx="41.5" cy="89.5" r="1"></circle>
                <circle id="Oval-2" fill="#D8D8D8" cx="68.5" cy="92.5" r="1"></circle>
                <circle id="Oval-2" fill="#D8D8D8" cx="68.5" cy="67.5" r="1"></circle>
                <circle id="Oval-2" fill="#D8D8D8" cx="77.5" cy="80.5" r="1"></circle>
                <circle id="Oval-2" fill="#D8D8D8" cx="42.5" cy="61.5" r="1"></circle>
                <circle id="Oval-2" fill="#D8D8D8" cx="49.5" cy="46.5" r="1"></circle>
                <circle id="Oval-2" fill="#D8D8D8" cx="27.5" cy="56.5" r="1"></circle>
                <circle id="Oval-2" fill="#D8D8D8" cx="29.5" cy="42.5" r="1"></circle>
                <circle id="Oval-2" fill="#D8D8D8" cx="69.5" cy="58.5" r="1"></circle>
                <circle id="Oval-2" fill="#D8D8D8" cx="57.5" cy="33.5" r="1"></circle>
                <circle id="Oval-2" fill="#D8D8D8" cx="26.5" cy="97.5" r="1"></circle>
                <circle id="Oval-2" fill="#D8D8D8" cx="11.5" cy="89.5" r="1"></circle>
            </g>
            <g id="Group-2" transform="translate(4.000000, 8.000000)">
                <circle id="Oval" cx="42.5" cy="65.5" r="42.5"></circle>
                <path d="M42.5,12.8488372 L42.5,0.136774486" id="Line" stroke-linecap="square"></path>
                <rect id="Rectangle" x="38.5" y="13.5" width="8" height="9" rx="2"></rect>
                <path d="M42.5,107.5 L42.5,43.4297261" id="Line-2" stroke-linecap="square"></path>
                <path d="M46.5,49.5 L42.5,44.5" id="Line-3" stroke-linecap="square" transform="translate(44.500000, 47.000000) scale(1, -1) translate(-44.500000, -47.000000) "></path>
                <path d="M42.5,49.5 L38.5,44.5" id="Line-3" stroke-linecap="square"></path>
                <path d="M50.0166482,56.0166482 L42.5,48.5" id="Line-3" stroke-linecap="square" transform="translate(46.500000, 52.500000) scale(1, -1) translate(-46.500000, -52.500000) "></path>
                <path d="M42.5,56.5 L34.9833518,48.9833518" id="Line-3" stroke-linecap="square"></path>
                <path d="M53.011898,63.011898 L42.5,52.5" id="Line-3" stroke-linecap="square" transform="translate(48.000000, 58.000000) scale(1, -1) translate(-48.000000, -58.000000) "></path>
                <path d="M42.5,63.5 L32.4501244,53.4501244" id="Line-3" stroke-linecap="square"></path>
                <path d="M57.0086181,70.0086181 L42.5,55.5" id="Line-3" stroke-linecap="square" transform="translate(50.000000, 63.000000) scale(1, -1) translate(-50.000000, -63.000000) "></path>
                <path d="M42.5,70.5 L28.9169223,56.9169223" id="Line-3" stroke-linecap="square"></path>
                <path d="M61.0067555,78.0067555 L42.5,59.5" id="Line-3" stroke-linecap="square" transform="translate(52.000000, 69.000000) scale(1, -1) translate(-52.000000, -69.000000) "></path>
                <path d="M42.5,78.5 L24.9928586,60.9928586" id="Line-3" stroke-linecap="square"></path>
                <path d="M64.5,85.5 L42.5,63.5" id="Line-3" stroke-linecap="square" transform="translate(53.500000, 74.500000) scale(1, -1) translate(-53.500000, -74.500000) "></path>
                <path d="M42.5,85.5 L21.9451952,64.9451952" id="Line-3" stroke-linecap="square"></path>
                <path d="M64.5,93.5 L42.5,71.5" id="Line-3" stroke-linecap="square" transform="translate(53.500000, 82.500000) scale(1, -1) translate(-53.500000, -82.500000) "></path>
                <path d="M42.5,93.5 L21.9451952,72.9451952" id="Line-3" stroke-linecap="square"></path>
                <path d="M60.5,100.5 L42.5,82.5" id="Line-3" stroke-linecap="square" transform="translate(51.500000, 91.500000) scale(1, -1) translate(-51.500000, -91.500000) "></path>
                <path d="M42.5,100.5 L24.9928586,82.9928586" id="Line-3" stroke-linecap="square"></path>
                <path d="M59.4891339,107.510873 L42.5,90.5217391" id="Line-3" stroke-linecap="square" transform="translate(51.000000, 99.000000) scale(1, -1) translate(-51.000000, -99.000000) "></path>
                <path d="M42.5,107.477273 L26.5,90.5" id="Line-3" stroke-linecap="square"></path>
            </g>
            <g id="Group-3" transform="translate(270.000000, 8.000000)">
                <circle id="Oval" cx="42.5" cy="65.5" r="42.5"></circle>
                <path d="M42.5,12.8488372 L42.5,0.136774486" id="Line" stroke-linecap="square"></path>
                <rect id="Rectangle" x="38.5" y="13.5" width="8" height="9" rx="2"></rect>
                <path d="M3.5,48.5 C7.28571524,42.8957377 11.0827629,40.0936065 14.8911431,40.0936065 C21.3053314,40.0936065 19.3018355,48.5 28.8376573,48.5 C35.2555551,48.5 35.0839019,39.3326371 42.5,39.3326371 C49.4156283,39.3326371 49.7590184,48.5 57.3480461,48.5 C62.7850563,48.5 63.5473272,39.3326371 69.3852476,39.3326371 C72.9336122,39.3326371 76.971863,42.3884247 81.5,48.5" id="Line-4" stroke-linecap="square"></path>
                <path d="M3.79750116,92.1673629 C7.07990507,86.5493493 10.6252971,83.7403425 14.4336772,83.7403425 C20.8478656,83.7403425 18.8018355,92.1673629 28.3376573,92.1673629 C34.7555551,92.1673629 34.5839019,83 42,83 C48.9156283,83 49.2590184,92.1673629 56.8480461,92.1673629 C62.2850563,92.1673629 63.0473272,83 68.8852476,83 C72.4336122,83 76.471863,86.0557876 81,92.1673629" id="Line-4" stroke-linecap="square" transform="translate(42.398751, 87.583681) scale(1, -1) translate(-42.398751, -87.583681) "></path>
            </g>
        </g>
    </g>
</svg>